<svg width="50" height="40" viewBox="0 0 50 40" fill="none" xmlns="http://www.w3.org/2000/svg">
<path d="M23.2196 3.4717C20.9446 4.12579 18.818 5.03145 16.8398 6.18868C14.911 7.34591 13.2047 8.7044 11.7211 10.2642C10.2868 11.7736 9.14936 13.4088 8.30861 15.1698C7.46785 16.9308 7.04748 18.7421 7.04748 20.6038C7.04748 21.7107 7.27003 22.6918 7.71513 23.5472C8.16024 24.3522 8.67953 24.7547 9.273 24.7547C9.91593 24.7547 10.4352 24.6289 10.8309 24.3774C11.276 24.1258 11.7211 23.8491 12.1662 23.5472C12.6113 23.2453 13.1058 22.9686 13.6499 22.717C14.2433 22.4654 15.0099 22.3396 15.9496 22.3396C16.9387 22.3396 17.8536 22.566 18.6944 23.0189C19.5846 23.4214 20.3511 24 20.9941 24.7547C21.6864 25.5094 22.2305 26.4151 22.6261 27.4717C23.0218 28.5283 23.2196 29.6604 23.2196 30.8679C23.2196 32.1761 22.9476 33.3836 22.4036 34.4906C21.8595 35.5975 21.1177 36.5535 20.178 37.3585C19.2878 38.1635 18.2245 38.8176 16.9881 39.3208C15.8012 39.7736 14.5153 40 13.1306 40C11.3007 40 9.59446 39.5975 8.01187 38.7924C6.42928 37.9371 5.04451 36.805 3.85757 35.3962C2.67062 33.9371 1.73096 32.2767 1.03858 30.4151C0.346192 28.5031 0 26.4654 0 24.3019C0 20.8805 0.6182 17.7358 1.8546 14.8679C3.14046 12 4.82196 9.50943 6.89911 7.39623C9.02572 5.2327 11.4985 3.52201 14.3175 2.26415C17.1365 0.955975 20.1039 0.201258 23.2196 0V3.4717ZM50 3.4717C47.7745 4.12579 45.6726 5.03145 43.6944 6.18868C41.7161 7.34591 40.0099 8.7044 38.5757 10.2642C37.1414 11.7736 36.004 13.4088 35.1632 15.1698C34.3225 16.9308 33.9021 18.7421 33.9021 20.6038C33.9021 21.7107 34.0999 22.6918 34.4955 23.5472C34.9407 24.3522 35.4847 24.7547 36.1276 24.7547C36.7705 24.7547 37.2898 24.6289 37.6855 24.3774C38.1306 24.1258 38.5509 23.8491 38.9466 23.5472C39.3917 23.2453 39.8862 22.9686 40.4303 22.717C41.0237 22.4654 41.7903 22.3396 42.73 22.3396C43.7191 22.3396 44.634 22.566 45.4748 23.0189C46.365 23.4214 47.1316 24 47.7745 24.7547C48.4669 25.5094 49.0109 26.4151 49.4065 27.4717C49.8022 28.5283 50 29.6604 50 30.8679C50 32.1761 49.728 33.3836 49.184 34.4906C48.6894 35.5975 47.9723 36.5535 47.0326 37.3585C46.1424 38.1635 45.0791 38.8176 43.8427 39.3208C42.6063 39.7736 41.2957 40 39.911 40C38.0811 40 36.3749 39.5975 34.7923 38.7924C33.2097 37.9371 31.8249 36.805 30.638 35.3962C29.451 33.9371 28.5114 32.2767 27.819 30.4151C27.1266 28.5031 26.7804 26.4654 26.7804 24.3019C26.7804 20.8805 27.3986 17.7358 28.635 14.8679C29.9209 12 31.6271 9.50943 33.7537 7.39623C35.8803 5.2327 38.3284 3.52201 41.0979 2.26415C43.9169 0.955975 46.8843 0.201258 50 0V3.4717Z" fill="#564C42" fill-opacity="0.5"/>
</svg>
