<svg xmlns="http://www.w3.org/2000/svg" width="48" height="48" viewBox="0 0 48 48" fill="none"><path d="M34.5735 7.17401C34.4836 7.17402 34.3947 7.15534 34.3124 7.11916C34.2301 7.08298 34.1562 7.03009 34.0955 6.96384C33.6737 6.50461 33.2169 6.07869 32.7294 5.6899C32.6039 5.58012 32.5255 5.42623 32.5105 5.26016C32.4954 5.09409 32.5449 4.9286 32.6487 4.79806C32.7524 4.66752 32.9024 4.58195 33.0676 4.55911C33.2328 4.53627 33.4004 4.57792 33.5357 4.67541C34.0757 5.10629 34.5816 5.57818 35.049 6.08687C35.134 6.1795 35.1902 6.29482 35.2108 6.41881C35.2315 6.5428 35.2157 6.67011 35.1653 6.78528C35.1149 6.90044 35.0322 6.99849 34.9271 7.0675C34.8221 7.13652 34.6992 7.17352 34.5735 7.17401Z" fill="#968C83"></path><path d="M24.0013 46.7027C23.9096 46.7026 23.8189 46.6831 23.7353 46.6454C23.6517 46.6077 23.577 46.5528 23.5162 46.4841C20.8403 43.3563 18.3935 40.0396 16.1949 36.5598C11.3118 28.8285 8.83594 22.067 8.83594 16.4627C8.83495 12.7565 10.1922 9.17854 12.651 6.40549C15.1099 3.63245 18.4997 1.85666 22.1793 1.41403C22.3501 1.39365 22.5221 1.44196 22.6573 1.54834C22.7925 1.65472 22.8799 1.81045 22.9003 1.98128C22.9207 2.15211 22.8723 2.32404 22.766 2.45924C22.6596 2.59445 22.5039 2.68186 22.333 2.70225C18.9686 3.10712 15.8691 4.73098 13.6211 7.26665C11.373 9.80231 10.1321 13.074 10.1332 16.4627C10.1332 27.9185 21.493 42.0713 24.0013 45.0558C26.5097 42.072 37.8695 27.9185 37.8695 16.4627C37.8759 14.5953 37.4988 12.7466 36.7616 11.0309C36.7257 10.9524 36.7058 10.8674 36.7032 10.7811C36.7005 10.6948 36.7151 10.6088 36.7462 10.5283C36.7772 10.4477 36.824 10.3741 36.8838 10.3118C36.9436 10.2496 37.0153 10.1999 37.0946 10.1657C37.1739 10.1315 37.2592 10.1134 37.3456 10.1126C37.4319 10.1118 37.5175 10.1283 37.5974 10.161C37.6774 10.1938 37.7499 10.2421 37.8109 10.3033C37.8718 10.3645 37.92 10.4372 37.9525 10.5172C38.7601 12.3949 39.1734 14.4186 39.1668 16.4627C39.1668 22.067 36.6909 28.8285 31.8078 36.5598C29.6092 40.0396 27.1624 43.3563 24.4865 46.4841C24.4257 46.5528 24.351 46.6077 24.2674 46.6454C24.1838 46.6831 24.0931 46.7026 24.0013 46.7027Z" fill="#968C83"></path><path d="M29.1946 3.55463C29.1138 3.55469 29.0337 3.5395 28.9585 3.50987C28.3865 3.2882 27.7998 3.10657 27.2026 2.96631C27.037 2.92499 26.8943 2.82005 26.8055 2.67425C26.7168 2.52844 26.6891 2.35352 26.7284 2.18742C26.7678 2.02132 26.871 1.87742 27.0157 1.78693C27.1605 1.69645 27.3351 1.66666 27.5016 1.70404C28.1578 1.85831 28.8024 2.05815 29.4307 2.30209C29.5713 2.35723 29.6883 2.45974 29.7615 2.59193C29.8346 2.72411 29.8593 2.87768 29.8314 3.02614C29.8034 3.1746 29.7244 3.30863 29.6082 3.40511C29.4919 3.5016 29.3457 3.55448 29.1946 3.55463Z" fill="#968C83"></path><path d="M23.9992 27.7972C21.8276 27.7972 19.7048 27.1532 17.8992 25.9468C16.0936 24.7403 14.6863 23.0255 13.8553 21.0192C13.0243 19.013 12.8069 16.8053 13.2305 14.6755C13.6542 12.5456 14.6999 10.5892 16.2354 9.05371C17.7709 7.51817 19.7273 6.47246 21.8572 6.04881C23.987 5.62515 26.1947 5.84259 28.2009 6.67361C30.2072 7.50464 31.922 8.91193 33.1285 10.7175C34.3349 12.5231 34.9789 14.6459 34.9789 16.8175C34.9756 19.7285 33.8178 22.5193 31.7594 24.5777C29.701 26.6361 26.9102 27.7939 23.9992 27.7972ZM23.9992 7.13513C22.0842 7.13513 20.2122 7.70299 18.62 8.76691C17.0277 9.83082 15.7867 11.343 15.0539 13.1122C14.321 14.8814 14.1293 16.8282 14.5029 18.7064C14.8765 20.5846 15.7986 22.3099 17.1527 23.664C18.5068 25.0181 20.2321 25.9402 22.1103 26.3138C23.9885 26.6874 25.9353 26.4957 27.7045 25.7629C29.4737 25.03 30.9859 23.789 32.0498 22.1967C33.1137 20.6045 33.6816 18.7325 33.6816 16.8175C33.6787 14.2505 32.6576 11.7894 30.8425 9.97426C29.0273 8.15909 26.5662 7.13805 23.9992 7.13513Z" fill="#968C83"></path><path d="M27.9347 22.4899H25.3758C25.2038 22.4899 25.0388 22.4216 24.9171 22.2999C24.7955 22.1783 24.7271 22.0133 24.7271 21.8413V19.7293H23.2703V21.8413C23.2703 22.0133 23.2019 22.1783 23.0803 22.2999C22.9586 22.4216 22.7937 22.4899 22.6216 22.4899H20.0627C19.8907 22.4899 19.7257 22.4216 19.604 22.2999C19.4824 22.1783 19.4141 22.0133 19.4141 21.8413V16.3193C19.4141 16.1473 19.4824 15.9823 19.604 15.8607C19.7257 15.739 19.8907 15.6707 20.0627 15.6707H27.9347C28.1067 15.6707 28.2717 15.739 28.3934 15.8607C28.515 15.9823 28.5834 16.1473 28.5834 16.3193V21.8413C28.5834 22.0133 28.515 22.1783 28.3934 22.2999C28.2717 22.4216 28.1067 22.4899 27.9347 22.4899ZM26.0244 21.1926H27.2861V16.968H20.7114V21.1926H21.973V19.0806C21.973 18.9086 22.0413 18.7436 22.163 18.622C22.2846 18.5003 22.4496 18.432 22.6216 18.432H25.3758C25.5478 18.432 25.7128 18.5003 25.8345 18.622C25.9561 18.7436 26.0244 18.9086 26.0244 19.0806V21.1926Z" fill="#968C83"></path><path d="M29.7237 16.968H18.2776C18.1482 16.968 18.0216 16.9293 17.9144 16.8568C17.8071 16.7843 17.724 16.6814 17.6757 16.5612C17.6274 16.4411 17.6162 16.3093 17.6435 16.1827C17.6707 16.0561 17.7353 15.9406 17.8288 15.8511L23.5524 10.3693C23.6731 10.2539 23.8337 10.1896 24.0007 10.1896C24.1676 10.1896 24.3282 10.2539 24.4489 10.3693L30.1725 15.8511C30.266 15.9406 30.3306 16.0561 30.3578 16.1827C30.3851 16.3093 30.3739 16.4411 30.3256 16.5612C30.2773 16.6814 30.1942 16.7843 30.0869 16.8568C29.9797 16.9293 29.8532 16.968 29.7237 16.968ZM19.8928 15.6707H28.1085L24.0007 11.736L19.8928 15.6707Z" fill="#968C83"></path></svg>