<svg xmlns="http://www.w3.org/2000/svg" width="48" height="48" viewBox="0 0 48 48" fill="none"><path d="M13.3499 33.8595C13.2624 33.8595 13.1758 33.8418 13.0953 33.8074C13.0148 33.7731 12.9421 33.7228 12.8815 33.6597C12.4366 33.1959 12.0059 32.7379 11.5842 32.2735C11.5232 32.2114 11.4754 32.1376 11.4435 32.0566C11.4116 31.9755 11.3964 31.8889 11.3987 31.8019C11.401 31.7148 11.4208 31.6291 11.4569 31.5499C11.4931 31.4707 11.5448 31.3995 11.609 31.3407C11.6732 31.2819 11.7486 31.2366 11.8307 31.2076C11.9128 31.1785 11.9999 31.1663 12.0868 31.1716C12.1737 31.177 12.2587 31.1997 12.3366 31.2386C12.4145 31.2775 12.4838 31.3316 12.5404 31.3978C12.9594 31.8519 13.3836 32.3059 13.8214 32.76C13.9103 32.8519 13.97 32.968 13.993 33.0937C14.0161 33.2193 14.0016 33.3491 13.9512 33.4665C13.9008 33.584 13.8169 33.6839 13.7099 33.7538C13.6029 33.8237 13.4777 33.8605 13.3499 33.8595Z" fill="#968C83"></path><path d="M36.1228 46.7027C32.0175 46.7027 26.7823 44.6465 21.3797 40.9122C21.2381 40.8142 21.1412 40.664 21.1104 40.4947C21.0796 40.3253 21.1173 40.1506 21.2153 40.009C21.3132 39.8674 21.4634 39.7705 21.6328 39.7397C21.8022 39.7089 21.9769 39.7466 22.1185 39.8445C27.2299 43.3784 32.3347 45.4054 36.1228 45.4054C38.122 45.4054 39.6833 44.8586 40.7626 43.7792L45.2649 39.2835C45.3554 39.1889 45.4056 39.0629 45.4049 38.9321C45.4041 38.8012 45.3525 38.6758 45.261 38.5823L37.0523 30.3743C36.9586 30.2841 36.8335 30.2337 36.7034 30.2337C36.5732 30.2337 36.4482 30.2841 36.3544 30.3743L33.1955 33.5332C30.7371 35.9916 24.2441 32.8015 19.7204 28.2791C15.1968 23.7568 12.0074 17.2631 14.4644 14.8041L17.6234 11.6452C17.6699 11.5998 17.7069 11.5455 17.7321 11.4855C17.7573 11.4256 17.7703 11.3612 17.7703 11.2962C17.7703 11.2312 17.7573 11.1668 17.7321 11.1069C17.7069 11.047 17.6699 10.9927 17.6234 10.9472L9.41342 2.73535C9.31899 2.64476 9.19303 2.59444 9.06217 2.59505C8.93131 2.59566 8.80582 2.64713 8.71223 2.7386L4.22034 7.23698C0.735152 10.7228 2.9665 19.237 9.64758 27.9444C9.75244 28.0809 9.79877 28.2535 9.77639 28.4242C9.754 28.5948 9.66474 28.7496 9.52823 28.8545C9.39172 28.9593 9.21916 29.0057 9.04849 28.9833C8.87782 28.9609 8.72303 28.8716 8.61818 28.7351C1.41688 19.3498 -0.719119 10.3414 3.30315 6.31979L7.79764 1.81622C8.13516 1.48512 8.5889 1.29932 9.06171 1.29859C9.53452 1.29787 9.98882 1.48227 10.3274 1.81233L18.5425 10.0301C18.7087 10.1961 18.8405 10.3933 18.9304 10.6103C19.0203 10.8274 19.0666 11.06 19.0666 11.2949C19.0666 11.5298 19.0203 11.7625 18.9304 11.9795C18.8405 12.1965 18.7087 12.3937 18.5425 12.5598L15.3836 15.7187C13.7717 17.3306 16.3747 23.0964 20.6376 27.3594C24.9006 31.6223 30.6664 34.2253 32.2783 32.6134L35.4372 29.4545C35.7732 29.12 36.228 28.9322 36.7021 28.9322C37.1762 28.9322 37.6309 29.12 37.9669 29.4545L46.1834 37.669C46.5146 38.0064 46.7005 38.4602 46.7013 38.933C46.702 39.4059 46.5175 39.8602 46.1873 40.1987L41.6817 44.6971C40.3488 46.0275 38.4787 46.7027 36.1228 46.7027Z" fill="#968C83"></path><path d="M18.0962 38.2574C17.947 38.2572 17.8025 38.2057 17.6869 38.1114C17.1511 37.6742 16.6633 37.2552 16.195 36.831C16.1292 36.7745 16.0754 36.7055 16.0368 36.6279C15.9981 36.5503 15.9754 36.4658 15.97 36.3792C15.9646 36.2927 15.9766 36.206 16.0052 36.1242C16.0339 36.0424 16.0787 35.9672 16.1369 35.903C16.1951 35.8388 16.2656 35.7869 16.3442 35.7504C16.4228 35.7139 16.508 35.6935 16.5946 35.6905C16.6812 35.6874 16.7676 35.7018 16.8486 35.7327C16.9295 35.7636 17.0035 35.8104 17.0661 35.8703C17.5202 36.2796 17.9885 36.6844 18.5061 37.1066C18.6096 37.1913 18.6844 37.3059 18.7203 37.4348C18.7561 37.5636 18.7513 37.7004 18.7064 37.8264C18.6615 37.9524 18.5788 38.0614 18.4696 38.1385C18.3603 38.2157 18.2299 38.2572 18.0962 38.2574Z" fill="#968C83"></path><path d="M14.9254 15.9101C14.8402 15.9103 14.7558 15.8936 14.6771 15.861C14.5983 15.8284 14.5269 15.7805 14.4668 15.72L4.64302 5.89688C4.52486 5.77454 4.45948 5.61069 4.46096 5.44062C4.46244 5.27055 4.53066 5.10786 4.65092 4.98759C4.77119 4.86733 4.93388 4.79911 5.10395 4.79763C5.27402 4.79615 5.43787 4.86153 5.56021 4.97969L15.384 14.8028C15.4747 14.8935 15.5364 15.0091 15.5615 15.1349C15.5865 15.2607 15.5736 15.3911 15.5245 15.5096C15.4755 15.6281 15.3923 15.7294 15.2857 15.8007C15.1791 15.872 15.0537 15.91 14.9254 15.9101Z" fill="#968C83"></path><path d="M42.5615 43.5464C42.3895 43.5464 42.2245 43.478 42.1029 43.3563L32.2797 33.5351C32.1616 33.4128 32.0962 33.249 32.0977 33.0789C32.0992 32.9088 32.1674 32.7461 32.2876 32.6259C32.4079 32.5056 32.5706 32.4374 32.7407 32.4359C32.9107 32.4344 33.0746 32.4998 33.1969 32.618L43.0201 42.4391C43.1108 42.5299 43.1725 42.6454 43.1975 42.7712C43.2225 42.897 43.2097 43.0274 43.1606 43.1459C43.1115 43.2645 43.0284 43.3658 42.9218 43.437C42.8151 43.5083 42.6897 43.5464 42.5615 43.5464Z" fill="#968C83"></path><path d="M31.1351 24.6486C31.0356 24.6486 30.9375 24.6257 30.8483 24.5817C30.7592 24.5378 30.6813 24.4739 30.6207 24.395C30.3139 23.9954 23.1055 14.5518 23.1055 9.32689C23.1055 7.1973 23.9514 5.15494 25.4573 3.64909C26.9631 2.14325 29.0055 1.29727 31.1351 1.29727C33.2647 1.29727 35.307 2.14325 36.8129 3.64909C38.3187 5.15494 39.1647 7.1973 39.1647 9.32689C39.1647 14.5518 31.9563 23.9954 31.6495 24.395C31.5889 24.4739 31.511 24.5378 31.4218 24.5817C31.3326 24.6257 31.2345 24.6486 31.1351 24.6486ZM31.1351 2.59457C29.3502 2.59663 27.639 3.30659 26.3769 4.5687C25.1148 5.83081 24.4048 7.542 24.4028 9.32689C24.4028 13.355 29.4797 20.6432 31.1351 22.9122C32.7904 20.6419 37.8674 13.3531 37.8674 9.32689C37.8654 7.542 37.1554 5.83081 35.8933 4.5687C34.6312 3.30659 32.92 2.59663 31.1351 2.59457Z" fill="#968C83"></path><path d="M31.1349 14.1152C30.2337 14.1154 29.3527 13.8483 28.6034 13.3477C27.8541 12.8471 27.27 12.1355 26.9251 11.303C26.5801 10.4704 26.4899 9.5543 26.6656 8.67045C26.8414 7.78659 27.2754 6.97471 27.9126 6.33748C28.5498 5.70026 29.3617 5.26632 30.2455 5.09054C31.1294 4.91477 32.0455 5.00505 32.8781 5.34997C33.7106 5.69489 34.4222 6.27896 34.9228 7.02831C35.4234 7.77765 35.6905 8.65862 35.6903 9.55979C35.689 10.7675 35.2086 11.9254 34.3546 12.7795C33.5005 13.6335 32.3426 14.1139 31.1349 14.1152ZM31.1349 6.30098C30.4903 6.30085 29.8602 6.49186 29.3242 6.84987C28.7882 7.20787 28.3704 7.71679 28.1237 8.31225C27.8769 8.9077 27.8123 9.56296 27.938 10.1952C28.0636 10.8273 28.3739 11.4081 28.8297 11.8639C29.2854 12.3197 29.8661 12.6301 30.4982 12.7559C31.1304 12.8817 31.7857 12.8172 32.3812 12.5706C32.9767 12.324 33.4857 11.9063 33.8438 11.3704C34.2019 10.8344 34.393 10.2043 34.393 9.55979C34.3922 8.69587 34.0487 7.86758 33.4378 7.25664C32.827 6.6457 31.9988 6.30201 31.1349 6.30098Z" fill="#968C83"></path></svg>