<svg xmlns="http://www.w3.org/2000/svg" width="48" height="48" viewBox="0 0 48 48" fill="none"><g clip-path="url(#clip0)"><path d="M47.9903 18.3504C47.9854 18.2953 47.9744 18.2408 47.9575 18.1881C47.9466 18.1409 47.9313 18.0949 47.912 18.0504C47.8896 18.007 47.8627 17.966 47.832 17.928C47.8011 17.8829 47.7654 17.8414 47.7256 17.8039C47.7127 17.7928 47.7072 17.7775 47.6936 17.7663L39.9996 11.7909V5.59782C39.9996 4.27232 38.925 3.1977 37.5995 3.1977H28.9294L25.458 0.502344C24.6004 -0.166502 23.3978 -0.166502 22.5402 0.502344L19.068 3.1977H10.398C9.07246 3.1977 7.99784 4.27222 7.99784 5.59782V11.791L0.306297 17.7664C0.292702 17.7777 0.287077 17.7929 0.274326 17.804C0.234481 17.8414 0.19876 17.883 0.167915 17.9281C0.137163 17.966 0.110349 18.007 0.087942 18.0505C0.0685347 18.0949 0.0533465 18.141 0.0423772 18.1882C0.0256888 18.2402 0.0147195 18.2938 0.00956299 18.3482C0.00956299 18.365 0 18.3794 0 18.3962V45.5998C0.00112506 46.1087 0.165758 46.6037 0.469618 47.0118C0.474399 47.0191 0.475243 47.0279 0.480774 47.0342C0.4864 47.0406 0.4984 47.0478 0.506369 47.0567C0.95583 47.6481 1.65487 47.9967 2.39768 47.9999H45.5999C46.3456 47.9977 47.0475 47.6473 47.4976 47.0527C47.5039 47.0447 47.5136 47.0423 47.5191 47.0343C47.5248 47.0264 47.5255 47.0191 47.5304 47.0119C47.8342 46.6037 47.9989 46.1087 48 45.5999V18.3984C47.9999 18.3817 47.9912 18.3672 47.9903 18.3504ZM23.5187 1.76475C23.7981 1.54274 24.1937 1.54274 24.4731 1.76475L26.3187 3.19761H21.6785L23.5187 1.76475ZM2.59926 46.3999L23.5188 30.1502C23.7983 29.9286 24.1937 29.9286 24.4732 30.1502L45.3982 46.3999H2.59926ZM46.3999 45.1526L25.458 28.8877C24.6002 28.2194 23.398 28.2194 22.5402 28.8877L1.59758 45.1526V19.6169L14.7079 29.7974C15.0572 30.0683 15.5599 30.0047 15.8308 29.6554C16.1016 29.3061 16.0381 28.8033 15.6887 28.5325L2.36965 18.1904L7.99794 13.8166V19.9985C7.99794 20.4403 8.35617 20.7985 8.79795 20.7985C9.23981 20.7985 9.59796 20.4402 9.59796 19.9985V5.59773C9.59796 5.15586 9.9561 4.79772 10.398 4.79772H37.5993C38.0412 4.79772 38.3993 5.15586 38.3993 5.59773V19.9985C38.3993 20.4403 38.7575 20.7985 39.1993 20.7985C39.6412 20.7985 39.9993 20.4402 39.9993 19.9985V13.8166L45.6276 18.1904L32.2854 28.551C32.0559 28.7249 31.9375 29.0088 31.9755 29.2942C32.0136 29.5797 32.2021 29.8227 32.4692 29.9305C32.7363 30.0382 33.0408 29.9941 33.2663 29.815L46.3997 19.6169V45.1526H46.3999Z" fill="#968C83"></path><path d="M33.5994 19.1981V15.998C33.5994 10.6958 29.3011 6.39749 23.9989 6.39749C18.6967 6.39749 14.3984 10.6958 14.3984 15.998C14.3984 21.3002 18.6967 25.5985 23.9989 25.5985C24.4408 25.5985 24.7989 25.2403 24.7989 24.7985C24.7989 24.3566 24.4408 23.9984 23.9989 23.9984C19.5804 23.9984 15.9985 20.4165 15.9985 15.9981C15.9985 11.5796 19.5804 7.9977 23.9989 7.9977C28.4174 7.9977 31.9993 11.5796 31.9993 15.9981V19.1982C31.9993 20.0819 31.2829 20.7983 30.3992 20.7983C29.5154 20.7983 28.7991 20.0819 28.7991 19.1982V15.9981C28.7991 15.5562 28.4409 15.1981 27.9991 15.1981C27.5572 15.1981 27.199 15.5562 27.199 15.9981C27.199 17.7654 25.7663 19.1982 23.9989 19.1982C22.2315 19.1982 20.7988 17.7654 20.7988 15.9981C20.7988 14.2307 22.2315 12.7979 23.9989 12.7979C24.4408 12.7979 24.7989 12.4398 24.7989 11.9979C24.7989 11.5561 24.4408 11.1979 23.9989 11.1979C21.8505 11.1931 19.9605 12.6164 19.3717 14.6826C18.783 16.7488 19.6387 18.9545 21.4669 20.083C23.2951 21.2114 25.6504 20.9877 27.2335 19.5352C27.4077 21.2271 28.8782 22.4851 30.5767 22.3951C32.2752 22.3051 33.6047 20.899 33.5994 19.1981Z" fill="#968C83"></path></g><defs><clipPath id="clip0"><rect width="48" height="48" fill="white"></rect></clipPath></defs></svg>